<?xml version="1.0" encoding="utf-8" ?>
<svg baseProfile="full" height="141.63779527559055" version="1.1" width="141.63779527559055" xmlns="http://www.w3.org/2000/svg" xmlns:ev="http://www.w3.org/2001/xml-events" xmlns:xlink="http://www.w3.org/1999/xlink"><defs><style type="text/css"><![CDATA[.non-scaling-stroke { vector-effect: non-scaling-stroke; }]]></style></defs><path class="non-scaling-stroke" d="M 141.63779527559055 8.85236220472441 A 8.85236220472441 8.85236220472441 0 0 1 132.78543307086613 17.70472440944882 L 132.78543307086613 8.85236220472441 A 4.426181102362205 4.426181102362205 0 1 1 123.93307086614173 8.85236220472441 L 123.93307086614173 17.70472440944882 L 8.85236220472441 17.70472440944882 A 8.85236220472441 8.85236220472441 0 0 1 1.5277601289623992e-15 26.55708661417323 L 0.0 132.78543307086613 A 8.85236220472441 8.85236220472441 0 0 1 17.70472440944882 132.78543307086613 L 17.70472440944882 123.93307086614173 L 132.78543307086613 123.93307086614173 A 8.85236220472441 8.85236220472441 0 0 1 141.63779527559055 115.08070866141732 Z M 8.85236220472441 35.40944881889764 A 8.85236220472441 8.85236220472441 0 0 1 17.70472440944882 26.55708661417323 A 4.426181102362205 4.426181102362205 0 0 1 8.85236220472441 26.55708661417323 Z" fill="#808080" opacity="1" stroke="red" stroke-width="1" /><path class="non-scaling-stroke" d="M 8.85236220472441 35.40944881889764 A 8.85236220472441 8.85236220472441 0 0 1 17.70472440944882 26.55708661417323 A 4.426181102362205 4.426181102362205 0 0 1 8.85236220472441 26.55708661417323 Z M 132.78543307086613 17.70472440944882 A 8.85236220472441 8.85236220472441 0 0 1 123.93307086614173 8.852362204724407 A 4.426181102362205 4.426181102362205 0 0 1 132.78543307086613 8.852362204724407 Z" fill="#808080" opacity="1" stroke="red" stroke-width="1" /><path class="non-scaling-stroke" d="M 0.0 26.55708661417323 A 8.85236220472441 8.85236220472441 0 0 1 8.852362204724407 17.70472440944882 L 123.93307086614173 17.70472440944882 L 123.93307086614173 8.85236220472441 A 8.85236220472441 8.85236220472441 0 1 1 141.63779527559055 8.852362204724406 L 141.63779527559055 115.08070866141732 A 8.85236220472441 8.85236220472441 0 0 1 132.78543307086613 123.93307086614173 L 17.70472440944882 123.93307086614173 L 17.70472440944882 132.78543307086613 A 8.85236220472441 8.85236220472441 0 1 1 0.0 132.78543307086613 Z M 123.93307086614173 17.70472440944882 L 132.78543307086613 17.70472440944882 A 8.85236220472441 8.85236220472441 0 0 1 141.63779527559055 8.85236220472441 M 132.78543307086613 17.70472440944882 L 132.78543307086613 8.85236220472441 A 4.426181102362205 4.426181102362205 0 1 1 123.93307086614173 8.85236220472441 M 8.85236220472441 35.40944881889764 L 8.85236220472441 26.55708661417323 A 4.426181102362205 4.426181102362205 0 1 1 17.70472440944882 26.55708661417323 A 8.85236220472441 8.85236220472441 0 1 1 0.0 26.55708661417323 M 17.70472440944882 26.55708661417323 L 17.70472440944882 123.93307086614173" fill="#808080" opacity="1" stroke="red" stroke-width="1" /></svg>