<?xml version="1.0" encoding="utf-8" ?>
<svg baseProfile="full" height="141.6415748031496" version="1.1" width="184.13858267716535" xmlns="http://www.w3.org/2000/svg" xmlns:ev="http://www.w3.org/2001/xml-events" xmlns:xlink="http://www.w3.org/1999/xlink"><defs><style type="text/css"><![CDATA[.non-scaling-stroke { vector-effect: non-scaling-stroke; }]]></style></defs><path class="non-scaling-stroke" d="M 0.4094488188976378 1.5086614173228345 A 0.7089763779527559 0.9648293963254593 0 0 1 1.4703548986173922 0.5461468836940274 A 0.5598950131233595 0.7629396325459318 0 0 1 2.3575859997759343 0.36032395281884694 A 0.4582677165354331 0.6241469816272965 0 0 1 3.132066889813457 0.26045917254120105 A 0.5099212598425197 0.6923884514435695 0 0 1 4.022895708532597 0.5854067740293922 A 0.5598950131233595 0.7635695538057743 0 0 1 4.3903816480491455 1.6230686643457002 A 0.7112860892388452 0.967979002624672 0 0 1 3.926965203682421 3.170923753236923 A 0.6073490813648293 0.8259317585301837 0 0 1 2.998006181621133 3.8649121151398242 A 0.7088713910761155 0.9674540682414698 0 0 1 1.7302331345249315 4.12222419144129 A 0.810498687664042 1.1068766404199475 0 0 1 0.6094424340940581 3.72388726744247 A 0.45774278215223096 0.6213123359580053 0 0 1 0.22189407267049005 2.6822307832937584 A 0.4561679790026247 0.6241469816272965 0 0 1 0.4056284382493316 1.5227878964524202 Z" fill="#808080" opacity="1" stroke="red" stroke-width="1" /><path class="non-scaling-stroke" d="M 0.49270341207349083 2.748241469816273 A 0.4561679790026247 0.6241469816272965 0 0 1 0.22675975263686857 2.6645665802499905 M 0.7273490813648293 3.663937007874016 A 0.45774278215223096 0.6213123359580053 0 0 1 0.6109931060308187 3.703983990543707 M 1.72997375328084 4.103937007874015 A 0.7088713910761155 0.9674540682414698 0 0 1 1.6598650063416551 3.9212577868966716 M 3.026456692913386 3.6483989501312335 A 0.7088713910761155 0.9674540682414698 0 0 1 2.998462183114187 3.848847072484507 M 3.5830971128608926 2.4098687664041996 A 0.6073490813648293 0.8259317585301837 0 0 1 3.924453362300397 3.159016337332545 M 4.388241469816273 1.611968503937008 A 0.5598950131233595 0.7635695538057743 0 0 1 4.236243349992596 1.8928808843015867 M 4.023517060367454 0.5696587926509187 A 0.5099212598425197 0.6923884514435695 0 0 1 4.031541813377259 0.7023263354103231 M 3.0528083989501313 0.4149081364829396 A 0.5099212598425197 0.6923884514435695 0 0 1 3.1306747863804048 0.24571682987160276 M 2.324514435695538 0.49553805774278215 A 0.4582677165354331 0.6241469816272965 0 0 1 2.362228148448161 0.34962278997613416 M 1.4698162729658792 0.5450918635170604 A 0.7089763779527559 0.9648293963254593 0 0 1 1.6062853861778412 0.6866545367495994 M 0.43328083989501315 1.6576377952755905 A 0.7089763779527559 0.9648293963254593 0 0 1 0.40946478870673814 1.5086976891569857" fill="#808080" opacity="1" stroke="red" stroke-width="1" /></svg>