<?xml version="1.0" encoding="utf-8" ?>
<svg baseProfile="full" height="141.63779527559055" version="1.1" width="141.63779527559055" xmlns="http://www.w3.org/2000/svg" xmlns:ev="http://www.w3.org/2001/xml-events" xmlns:xlink="http://www.w3.org/1999/xlink"><defs><style type="text/css"><![CDATA[.non-scaling-stroke { vector-effect: non-scaling-stroke; }]]></style></defs><path class="non-scaling-stroke" d="M 17.70472440944882 17.70472440944882 L 123.93307086614173 17.70472440944882 L 123.93307086614173 123.93307086614173 L 17.70472440944882 123.93307086614173 Z" fill="#808080" opacity="1" stroke="red" stroke-width="1" /><path class="non-scaling-stroke" d="M 0.0 0.0 L 141.63779527559055 0.0 L 123.93307086614173 17.70472440944882 L 17.70472440944882 17.70472440944882 Z" fill="#808080" opacity="1" stroke="red" stroke-width="1" /><path class="non-scaling-stroke" d="M 0.0 141.63779527559055 L 17.70472440944882 123.93307086614173 L 123.93307086614173 123.93307086614173 L 141.63779527559055 141.63779527559055 Z" fill="#808080" opacity="1" stroke="red" stroke-width="1" /><path class="non-scaling-stroke" d="M 0.0 0.0 L 17.70472440944882 17.70472440944882 L 17.70472440944882 123.93307086614173 L 0.0 141.63779527559055 Z" fill="#808080" opacity="1" stroke="red" stroke-width="1" /><path class="non-scaling-stroke" d="M 141.63779527559055 0.0 L 141.63779527559055 141.63779527559055 L 123.93307086614173 123.93307086614173 L 123.93307086614173 17.70472440944882 Z" fill="#808080" opacity="1" stroke="red" stroke-width="1" /><path class="non-scaling-stroke" d="M 0.0 0.0 L 141.63779527559055 0.0 L 141.63779527559055 141.63779527559055 L 0.0 141.63779527559055 Z M 17.70472440944882 17.70472440944882 L 123.93307086614173 17.70472440944882 L 123.93307086614173 123.93307086614173 L 17.70472440944882 123.93307086614173 Z M 0.0 0.0 L 17.70472440944882 17.70472440944882 M 0.0 141.63779527559055 L 17.70472440944882 123.93307086614173 M 141.63779527559055 0.0 L 123.93307086614173 17.70472440944882 M 141.63779527559055 141.63779527559055 L 123.93307086614173 123.93307086614173" fill="#808080" opacity="1" stroke="red" stroke-width="1" /></svg>