<?xml version="1.0" encoding="utf-8" ?>
<svg baseProfile="full" height="141.63779527559055" version="1.1" width="23.62204724409449" xmlns="http://www.w3.org/2000/svg" xmlns:ev="http://www.w3.org/2001/xml-events" xmlns:xlink="http://www.w3.org/1999/xlink"><defs><style type="text/css"><![CDATA[.non-scaling-stroke { vector-effect: non-scaling-stroke; }]]></style></defs><path class="non-scaling-stroke" d="M 0.0 0.0 A 11.811023622047244 11.811023622047244 0 0 1 11.811023622047246 11.81102362204724 L 11.811023622047244 59.00787401574803 A 11.811023622047244 11.811023622047244 0 0 1 23.62204724409449 70.81889763779527 A 11.811023622047244 11.811023622047244 0 0 1 11.811023622047248 82.62992125984252 L 11.811023622047244 129.82677165354332 A 11.811023622047244 11.811023622047244 0 0 1 7.232166136696967e-16 141.63779527559055 Z" fill="#808080" opacity="1" stroke="red" stroke-width="1" /><path class="non-scaling-stroke" d="M 0.0 0.0 A 11.811023622047244 11.811023622047244 0 0 1 11.811023622047246 11.81102362204724 L 11.811023622047244 59.00787401574803 A 11.811023622047244 11.811023622047244 0 0 1 23.62204724409449 70.81889763779527 A 11.811023622047244 11.811023622047244 0 0 1 11.811023622047248 82.62992125984252 L 11.811023622047244 129.82677165354332 A 11.811023622047244 11.811023622047244 0 0 1 7.232166136696967e-16 141.63779527559055" fill="#808080" opacity="1" stroke="red" stroke-width="1" /></svg>