<?xml version="1.0" encoding="utf-8" ?>
<svg baseProfile="full" height="100.99275590551181" version="1.1" width="141.6415748031496" xmlns="http://www.w3.org/2000/svg" xmlns:ev="http://www.w3.org/2001/xml-events" xmlns:xlink="http://www.w3.org/1999/xlink"><defs><style type="text/css"><![CDATA[.non-scaling-stroke { vector-effect: non-scaling-stroke; }]]></style></defs><path class="non-scaling-stroke" d="M 0.0 2.1818372703412074 C 0.9761679790026246 2.4716010498687666 0.9761679790026246 1.8920734908136483 1.952230971128609 1.8920734908136483 L 1.952230971128609 0.3858267716535433 L 0.0 0.3858267716535433 Z M 0.16083989501312335 0.3858267716535433 L 0.16083989501312335 0.19055118110236222 L 2.099737532808399 0.19055118110236222 L 2.099737532808399 1.706246719160105 C 2.026036745406824 1.706246719160105 1.952230971128609 1.716745406824147 1.952230971128609 1.716745406824147 L 1.952230971128609 0.3858267716535433 Z M 0.31202099737532807 0.19055118110236222 L 0.31202099737532807 0.0 L 2.267716535433071 0.0 L 2.267716535433071 1.5109711286089238 C 2.183727034120735 1.5109711286089238 2.099737532808399 1.5188451443569553 2.099737532808399 1.5188451443569553 L 2.099737532808399 0.19055118110236222 Z" fill="#808080" opacity="1" stroke="red" stroke-width="1" /><path class="non-scaling-stroke" d="M 0.0 0.3858267716535433 L 1.952230971128609 0.3858267716535433 L 1.952230971128609 1.8920734908136483 C 0.9761679790026246 1.8920734908136483 0.9761679790026246 2.4716010498687666 0.0 2.1818372703412074 Z M 0.16083989501312335 0.3858267716535433 L 0.16083989501312335 0.19055118110236222 L 2.099737532808399 0.19055118110236222 L 2.099737532808399 1.706246719160105 C 2.026036745406824 1.706246719160105 1.952230971128609 1.716745406824147 1.952230971128609 1.716745406824147 M 0.31202099737532807 0.19055118110236222 L 0.31202099737532807 0.0 L 2.267716535433071 0.0 L 2.267716535433071 1.5109711286089238 C 2.183727034120735 1.5109711286089238 2.099737532808399 1.5188451443569553 2.099737532808399 1.5188451443569553" fill="#808080" opacity="1" stroke="red" stroke-width="1" /><path class="non-scaling-stroke" d="M 0.0 2.1818372703412074 C 0.9761679790026246 2.4716010498687666 0.9761679790026246 1.8920734908136483 1.952230971128609 1.8920734908136483 L 1.952230971128609 1.716745406824147 C 1.952230971128609 1.716745406824147 2.026036745406824 1.706246719160105 2.099737532808399 1.706246719160105 L 2.099737532808399 1.5188451443569553 C 2.099737532808399 1.5188451443569553 2.183727034120735 1.5109711286089238 2.267716535433071 1.5109711286089238 L 2.267716535433071 0.0 L 0.31202099737532807 0.0 L 0.31202099737532807 0.19055118110236222 L 0.16083989501312335 0.19055118110236222 L 0.16083989501312335 0.3858267716535433 L 0.0 0.3858267716535433 Z" fill="#808080" opacity="1" stroke="red" stroke-width="1" /></svg>