<?xml version="1.0" encoding="utf-8" ?>
<svg baseProfile="full" height="188.8503937007874" version="1.1" width="188.8503937007874" xmlns="http://www.w3.org/2000/svg" xmlns:ev="http://www.w3.org/2001/xml-events" xmlns:xlink="http://www.w3.org/1999/xlink"><defs><style type="text/css"><![CDATA[.non-scaling-stroke { vector-effect: non-scaling-stroke; }]]></style></defs><path class="non-scaling-stroke" d="M 0.0 94.4251968503937 L 34.96565039370079 59.459546456692905 L 34.96565039370079 76.9423716535433 L 48.98495937007874 76.9423716535433 L 48.98495937007874 48.98495937007874 L 76.9423716535433 48.98495937007874 L 76.9423716535433 34.96565039370079 L 59.459546456692905 34.96565039370079 L 94.4251968503937 0.0 L 129.3908472440945 34.96565039370079 L 111.90802204724409 34.96565039370079 L 111.90802204724409 48.98495937007874 L 139.86543433070867 48.98495937007874 L 139.86543433070867 76.9423716535433 L 153.8847433070866 76.9423716535433 L 153.8847433070866 59.459546456692905 L 188.8503937007874 94.4251968503937 L 153.8847433070866 129.3908472440945 L 153.8847433070866 111.90802204724409 L 139.86543433070867 111.90802204724409 L 139.86543433070867 139.86543433070867 L 111.90802204724409 139.86543433070867 L 111.90802204724409 153.8847433070866 L 129.3908472440945 153.8847433070866 L 94.4251968503937 188.8503937007874 L 59.459546456692905 153.8847433070866 L 76.9423716535433 153.8847433070866 L 76.9423716535433 139.86543433070867 L 48.98495937007874 139.86543433070867 L 48.98495937007874 111.90802204724409 L 34.96565039370079 111.90802204724409 L 34.96565039370079 129.3908472440945 Z" fill="#808080" opacity="1" stroke="red" stroke-width="1" /></svg>